<?xml version="1.0" encoding="utf-8"?>
<!-- Generator: Adobe Illustrator 19.2.0, SVG Export Plug-In . SVG Version: 6.00 Build 0)  -->
<svg version="1.1" id="Ebene_1" xmlns="http://www.w3.org/2000/svg" xmlns:xlink="http://www.w3.org/1999/xlink" x="0px" y="0px"
	 viewBox="0 0 484.7 178" style="enable-background:new 0 0 484.7 178;" xml:space="preserve">
<style type="text/css">
	.st0{fill:#F7931E;}
	.st1{fill:#FFFFFF;}
</style>
<title>c_ionic_logo</title>
<g>
	<g>
		<circle class="st0" cx="89.2" cy="88.7" r="36.3"/>
		<path class="st1" d="M163.3,27.1c0-6.9-5.6-12.5-12.5-12.5c-3.1,0-6,1.2-8.2,3.1C127.7,6.5,109.2-0.2,89.2-0.2
			c-49,0-88.9,39.9-88.9,88.9c0,49,39.9,88.9,88.9,88.9s88.9-39.9,88.9-88.9c0-20-6.7-38.5-17.9-53.4
			C162.1,33.1,163.3,30.3,163.3,27.1z M89.2,174.7c-47.4,0-85.9-38.6-85.9-85.9S41.8,2.8,89.2,2.8c19.3,0,37.1,6.4,51.4,17.1
			c-1.4,2-2.3,4.5-2.3,7.2c0,6.9,5.6,12.5,12.5,12.5c2.7,0,5.2-0.9,7.2-2.3c10.7,14.3,17.1,32.2,17.1,51.4
			C175.1,136.1,136.6,174.7,89.2,174.7z"/>
	</g>
</g>
<rect x="211" y="38" class="st1" width="3" height="69"/>
<path class="st1" d="M266.4,35.9c-20.9,0-36.6,15.8-36.6,36.5c0,20.9,15.8,36.5,36.6,36.5c20.9,0,36.6-15.6,36.6-36.5
	C303.1,51.6,287.3,35.9,266.4,35.9z M266.4,105.5c-18.8,0-33-14.2-33-33.1c0-18.9,14.2-33.1,33-33.1c18.8,0,33,14.2,33,33.1
	C299.4,91.3,285.2,105.5,266.4,105.5z"/>
<path class="st1" d="M372.7,42.8c-7.9-6.4-17.4-6.9-22.3-6.9c-11,0-23.3,5.1-27.7,15.1h0.2V38h-4v69h4V67.1
	c0-17.5,10.5-27.8,28-27.8c10.5,0,16,3.4,19.6,6.6c5.3,4.7,8.4,12.5,8.4,24.6V107h4V70.4C383,57.9,379.5,48.6,372.7,42.8z"/>
<rect x="403" y="38" class="st1" width="4" height="69"/>
<circle class="st1" cx="212.4" cy="16" r="4"/>
<circle class="st1" cx="404.9" cy="16" r="4"/>
<g>
	<path class="st1" d="M219.4,137.7h-7.2c0.9-5.3,4.6-8,11.3-8c8,0,12,2.6,12.2,8v9.8c0,8-4.8,11.5-12.6,12c-6.9,0.5-11.7-2.7-11.7-9
		c0.2-6.9,5.2-8.8,12.5-9.5c3.1-0.4,4.7-1.3,4.7-2.9c-0.2-1.6-1.7-2.5-4.7-2.5C221.2,135.7,219.8,136.3,219.4,137.7z M228.6,147.2
		v-2.7c-1.7,0.7-3.7,1.3-5.8,1.7c-2.9,0.5-4.4,1.9-4.4,4c0.2,2.3,1.4,3.4,3.7,3.4C226.1,153.6,228.6,151.2,228.6,147.2z"/>
	<path class="st1" d="M246.3,166.7c0,2.4-1.2,3.6-3.6,3.6h-3.7v-27.6c0.4-8.6,4.8-12.9,13.5-12.9c8.9,0,13.4,4.8,13.4,14.5
		c0,9.8-3.8,14.9-11.5,15.1c-3.6,0-6.3-1.5-8.2-4.5V166.7z M252.5,153c3.9,0,5.9-2.8,6.1-8.3c0-5.8-2.1-8.7-6.2-8.7s-6.1,2.9-6,8.7
		C246.5,150.3,248.6,153,252.5,153z"/>
	<path class="st1" d="M276.6,166.7c0,2.4-1.2,3.6-3.6,3.6h-3.7v-27.6c0.4-8.6,4.8-12.9,13.5-12.9c8.9,0,13.4,4.8,13.4,14.5
		c0,9.8-3.8,14.9-11.5,15.1c-3.6,0-6.3-1.5-8.2-4.5V166.7z M282.8,153c3.9,0,5.9-2.8,6.1-8.3c0-5.8-2.1-8.7-6.2-8.7s-6.1,2.9-6,8.7
		C276.8,150.3,278.8,153,282.8,153z"/>
	<path class="st1" d="M315.7,150.8h-16.1v-6.7l14.1-22.2h5.6c2.5,0,3.8,1.3,3.8,3.9v18.8h4.5v6.2h-4.5v8.2h-7.4V150.8z M315.8,128.5
		l-10.3,16.3h10.3V128.5z"/>
	<path class="st1" d="M344.1,159.6c-8.7,0-13.2-5-13.4-14.9c0-9.9,4.4-14.8,13.3-15c7,0,11.1,3.1,12.4,9.4h-7.9c-0.9-2-2.4-3-4.7-3
		c-3.8,0-5.7,2.9-5.7,8.6c0,5.7,2,8.6,6,8.6c1.7,0,3.2-0.7,4.4-2.1c0.7-0.7,1.5-1,2.5-1h5.4C355.1,156,350.8,159.8,344.1,159.6z"/>
	<path class="st1" d="M386.2,144.7c0,9.9-4.4,14.9-13.1,14.9c-8.7,0-13.1-5-13.1-14.9c0-10,4.4-15,13.1-15
		C381.8,129.7,386.2,134.7,386.2,144.7z M367.3,144.7c0.1,5.6,2,8.4,5.7,8.4s5.6-2.9,5.6-8.7c0-5.6-1.9-8.4-5.6-8.4
		C369.2,136.1,367.3,139,367.3,144.7z"/>
	<path class="st1" d="M410.5,159c-2.4-0.2-3.6-1.3-3.6-3.6v-14.8c-0.2-3-1.8-4.5-5-4.5s-4.8,1.5-4.9,4.5V159h-7.4V142
		c0-8.2,4.1-12.3,12.4-12.3c8.2,0,12.3,4.1,12.2,12.3V159H410.5z"/>
	<path class="st1" d="M425.5,135.3h-0.8v16c0,1.2,0.7,1.9,2.1,1.9h2.2v5.5c-2.3,0.2-4.9,0.2-7.6-0.1s-4-2-4-5.2v-31.5h3.8
		c1.9,0,3.5,1.7,3.5,3.7v4.6h4.4v1.6C429.1,133.8,427.5,135.3,425.5,135.3z"/>
	<path class="st1" d="M439.6,137.7h-7.2c0.9-5.3,4.6-8,11.3-8c8,0,12,2.6,12.2,8v9.8c0,8-4.8,11.5-12.6,12c-6.9,0.5-11.7-2.7-11.7-9
		c0.2-6.9,5.2-8.8,12.5-9.5c3.1-0.4,4.7-1.3,4.7-2.9c-0.2-1.6-1.7-2.5-4.7-2.5C441.4,135.7,440,136.3,439.6,137.7z M448.8,147.2
		v-2.7c-1.7,0.7-3.7,1.3-5.8,1.7c-2.9,0.5-4.4,1.9-4.4,4c0.2,2.3,1.4,3.4,3.7,3.4C446.3,153.6,448.8,151.2,448.8,147.2z"/>
	<path class="st1" d="M485.3,144.7c0,9.9-4.4,14.9-13.1,14.9c-8.7,0-13.1-5-13.1-14.9c0-10,4.4-15,13.1-15
		C480.9,129.7,485.3,134.7,485.3,144.7z M466.4,144.7c0.1,5.6,2,8.4,5.7,8.4s5.6-2.9,5.6-8.7c0-5.6-1.9-8.4-5.6-8.4
		C468.3,136.1,466.4,139,466.4,144.7z"/>
</g>
<g>
	<path class="st0" d="M454.3,107.6c-21.2,0-31.8-14-31.8-35.5c0-22.2,11.2-35.6,33-35.6c8.4,0,15.2,2,20.4,6.3
		c4.9,4.4,7.6,10.4,8.3,17.9h-8.5c-3,0-5.3-1.4-6.6-4.2c-2.3-5-6.9-7.5-13.6-7.5c-13.1,0-18.9,9.2-18.9,23.1c0,13.5,5.6,23,18.5,23
		c8.8,0,13.9-4.9,15.4-12.5h13.7C482.9,98.6,471.8,107.6,454.3,107.6z"/>
</g>
</svg>
